<svg id="Layer_1" data-name="Layer 1" xmlns="http://www.w3.org/2000/svg" viewBox="0 0 240.32 299.33">
  <title>fngallery logo final</title>
  <g>
    <g>
      <path d="M379.31,231.35s-26.84-3.07-31,5.92a20.12,20.12,0,0,0-.22,16.65s6.35,14.24,3.07,20.38c0,0,2,5.7-10.3,14.9,0,0-19,9.86-19.35,30.67s1.38,24.76,29.43,47.77c0,0,6.35,2.63,11.39,2.63,0,0,25.85-4.82,36-2.19,0,0,13.47,8.87,24.65,8.87s20.71-15.12,20.71-15.12,11.5-24,15.45-40.09c0,0,20-38.45,3-54.55L446,249.1s-4.8-5.7-17.8-3.77c0,0-7.83,1.3-18.67-10.61,0,0,0-4-30.24-3.37" transform="translate(-265.8 -119.15)" style="fill: none;stroke: #d56127;stroke-miterlimit: 10"/>
      <path d="M328.52,180.08" transform="translate(-265.8 -119.15)" style="fill: #d56127"/>
    </g>
    <g>
      <path d="M283.82,392.93a4.72,4.72,0,0,1,.93.17,4.55,4.55,0,0,0,1,.17h2.57l1.39-.25,0.59,0.25h1.05l1.05-.34h0.93a1.47,1.47,0,0,1,.95.42,1.26,1.26,0,0,1,.48,1v2.36a2.11,2.11,0,0,1-.27,1,0.85,0.85,0,0,1-.78.51l-1.81-.93-1.41-.65a2.9,2.9,0,0,0-1-.32h-1.18l-0.44,0a4.83,4.83,0,0,0-.63.08,1.85,1.85,0,0,0-.57.21,0.45,0.45,0,0,0-.25.4v5.61a0.55,0.55,0,0,0,.29.51,2,2,0,0,0,.7.23,7.93,7.93,0,0,0,.8.08l0.57,0a3.52,3.52,0,0,0,1.45-.23,2.21,2.21,0,0,0,.74-0.53,4.78,4.78,0,0,0,.4-0.53,0.49,0.49,0,0,1,.44-0.23,1.28,1.28,0,0,1,.76.21,0.58,0.58,0,0,1,.29.46L292.38,405a0.74,0.74,0,0,1,.13.67,0.52,0.52,0,0,0-.13.38,0.79,0.79,0,0,0,.21.59,1.63,1.63,0,0,0,.25.21,1.74,1.74,0,0,1-.38,1.05,1,1,0,0,1-.67.51,0.72,0.72,0,0,1-.67-0.36l-0.46-.8a3.59,3.59,0,0,0-.65-0.82,1.76,1.76,0,0,0-1.24-.38l-0.74,0a3.31,3.31,0,0,0-.76.13,1.41,1.41,0,0,0-.61.36,0.91,0.91,0,0,0-.25.67v0.72a2.78,2.78,0,0,1-.17.84,3.6,3.6,0,0,0-.17,1.14,2.83,2.83,0,0,0,0,.57,2.67,2.67,0,0,0,.11.36,3.53,3.53,0,0,1,.13.44,4.21,4.21,0,0,1,.06.86v0.34a2.3,2.3,0,0,0,.27,1.08,2.58,2.58,0,0,0,.57.78,5.17,5.17,0,0,0,.91.29l1,0.25c0.36,0.11.74,0.21,1.14,0.3a1.5,1.5,0,0,1,.46.08,0.79,0.79,0,0,0,.25,0,0.88,0.88,0,0,1,.53.21,0.59,0.59,0,0,1,.27.46,0.93,0.93,0,0,1-.32.74,2.33,2.33,0,0,1-.72.42,4.28,4.28,0,0,1-.78.21,3.92,3.92,0,0,1-.51.06,6.1,6.1,0,0,1-1-.06l-0.65-.13-0.51-.13a1.84,1.84,0,0,0-.48-0.06H283.1a7.06,7.06,0,0,1-1.86-.21,6.76,6.76,0,0,1-.72-0.25c-0.39,0-.67,0-0.84,0a0.59,0.59,0,0,0-.42.23,0.76,0.76,0,0,1-.32.15,3.1,3.1,0,0,1-.74.06H276.7a2.2,2.2,0,0,1-1-.32,0.94,0.94,0,0,1-.59-0.82,0.79,0.79,0,0,1,.36-0.67,2.29,2.29,0,0,1,.8-0.36,4.85,4.85,0,0,1,.89-0.13l0.57,0h2.7a1.23,1.23,0,0,0,.29,0l0.38-.13,0.46-.21h0.25a0.69,0.69,0,0,0,.72-0.55,1.87,1.87,0,0,0,.08-0.59v-1.43l-0.34-2.32,0.34-1.05q-0.08-.42-0.17-0.8a5.75,5.75,0,0,1-.13-0.65,3.87,3.87,0,0,1,0-.44v-3.37q0.08-.42.17-0.8a6,6,0,0,0,.13-0.65,4,4,0,0,0,0-.44v-1.18q0-.13-0.06-0.61a6.34,6.34,0,0,0-.23-1,3.88,3.88,0,0,0-.44-1,0.78,0.78,0,0,0-.65-0.42,2.87,2.87,0,0,0-1.37.44l-1.33.74q-0.59.25-1.6,0.8t-1.81,1.05a2.4,2.4,0,0,0-.59,1q-0.25.74-.46,1.54t-0.46,2V406a1.88,1.88,0,0,1-.38,1.12,5.33,5.33,0,0,1-.91,1,4.46,4.46,0,0,1-1.12.7,2.6,2.6,0,0,1-1,.25,1.21,1.21,0,0,1-1.2-.65,2.79,2.79,0,0,1-.32-1.2,8.46,8.46,0,0,1,.25-1.92,14.17,14.17,0,0,1,.7-2.15q0.44-1.08,1-2.07a10.26,10.26,0,0,1,1.12-1.71,11.52,11.52,0,0,1,2-2.49,13.62,13.62,0,0,1,2.47-1.79,20.26,20.26,0,0,1,2.68-1.26q1.37-.53,2.64-0.91a0.49,0.49,0,0,1,.44-0.19,5.09,5.09,0,0,1,.78,0A7.53,7.53,0,0,1,283.82,392.93Z" transform="translate(-265.8 -119.15)" style="fill: #d56127"/>
      <path d="M303.26,393.06a1.31,1.31,0,0,1,.72.34,1.94,1.94,0,0,1,.7.61,2.13,2.13,0,0,0,.48.57,1.49,1.49,0,0,0,.89,1,3.29,3.29,0,0,1,1.1.61,7,7,0,0,1,1,1q0.48,0.61,1,1.29l1,1.31a7,7,0,0,0,.93,1.05,8.94,8.94,0,0,1,1.08,1.5,3.32,3.32,0,0,0,1.41,1.29q0.25,0.21,1,1t1.58,1.62q0.86,0.87,1.67,1.54a2.3,2.3,0,0,0,1.27.67,0.5,0.5,0,0,0,.4-0.13,0.48,0.48,0,0,0,.11-0.32,1.2,1.2,0,0,0-.06-0.38,1,1,0,0,1-.06-0.32v-3.16a2.17,2.17,0,0,1,.23-0.88,2.93,2.93,0,0,0,.23-1.22v-3.54a4.74,4.74,0,0,1-.46-0.42l-0.59-.61q-0.3-.32-0.57-0.57a0.79,0.79,0,0,0-.4-0.25H317a1.5,1.5,0,0,1-.59-0.15,3.41,3.41,0,0,1-.63-0.36,3.92,3.92,0,0,1-.48-0.4,0.54,0.54,0,0,1-.19-0.27V394.2a1.1,1.1,0,0,1,.19-0.67,1,1,0,0,1,.48-0.36,2.31,2.31,0,0,1,.63-0.13l0.59,0h0.8a6.39,6.39,0,0,1,.78.06l1,0.13,1,0.13a6.79,6.79,0,0,0,.86.06h5.86a3.41,3.41,0,0,1,1.58.38,1.31,1.31,0,0,1,.74,1.26,3.27,3.27,0,0,1,0,.57,1.79,1.79,0,0,1-.3.61,3.16,3.16,0,0,1-1.88.53q-0.91-.06-1.75-0.06l-1.18.34h-0.72a0.68,0.68,0,0,0-.57.48,2.36,2.36,0,0,0-.23,1V405a2.69,2.69,0,0,0,.17.76,2.68,2.68,0,0,1,.17.76v2.36L322.61,413a2.91,2.91,0,0,0,.11.67q0.1,0.42.25,0.86t0.25,0.84a2.71,2.71,0,0,1,.11.65c0,0.11,0,.31,0,0.59s0,0.56-.08.84a2.7,2.7,0,0,1-.21.74,0.45,0.45,0,0,1-.4.32H322c-0.27,0-.54,0-0.82,0a4.8,4.8,0,0,1-.74-0.13,0.34,0.34,0,0,1-.32-0.21,5.1,5.1,0,0,1-1-1.43,4,4,0,0,0-1-1.35,9.2,9.2,0,0,0-.89-1.05l-0.82-.8a10,10,0,0,1-.76-0.8,3.92,3.92,0,0,1-.61-1,6.72,6.72,0,0,0-1.43-2q-1-1-2-1.94t-2.11-2a9.9,9.9,0,0,1-1.67-2,1.12,1.12,0,0,0-.13-0.4,2.42,2.42,0,0,0-.34-0.53,3.15,3.15,0,0,0-.48-0.46,0.93,0.93,0,0,0-.57-0.21q-0.8,0-.8,1.27v4.81l0.34,2.36a7,7,0,0,1-.06,1.16,5.24,5.24,0,0,0-.06.95,1.47,1.47,0,0,0,.48,1.2,3.35,3.35,0,0,0,1.2.61,9.82,9.82,0,0,0,1.54.32,15.47,15.47,0,0,1,1.54.27,3.25,3.25,0,0,1,1.2.53,1.21,1.21,0,0,1,.48,1,0.36,0.36,0,0,1-.21.4,1.79,1.79,0,0,1-.51.06h-4.81l-2.7.38a1.42,1.42,0,0,0-.84-0.34c-0.34,0-.6,0-0.8,0h-0.8a2.82,2.82,0,0,1-1.31-.23,2.17,2.17,0,0,0-1.05-.23h-1.52l-0.34.46h-0.84q0-.17,0-0.57t0-.78q0-.46,0-1a0.72,0.72,0,0,1,.38-0.59,1.27,1.27,0,0,1,.67-0.25h0.91a1.21,1.21,0,0,0,.3,0l0.08,0,0.25,0c0.15,0,.42,0,0.8,0h1.75a0.73,0.73,0,0,0,.51-0.19,1.49,1.49,0,0,0,.34-0.44,1.77,1.77,0,0,0,.17-0.53,3,3,0,0,0,0-.4,1.61,1.61,0,0,1-.13-0.34,1.3,1.3,0,0,1-.13-0.59,6.89,6.89,0,0,0-.06-1,3.94,3.94,0,0,0-.17-0.7q-0.11-.3-0.17-0.53a2.18,2.18,0,0,1-.06-0.57,4.92,4.92,0,0,1,.06-0.72q0.06-.42.15-0.76l0.25-.84v-2.82a3.28,3.28,0,0,0-.06-0.59,1.33,1.33,0,0,0-.4-0.67,0.7,0.7,0,0,1,.21-0.63,0.46,0.46,0,0,1,.25-0.08,3.36,3.36,0,0,0-.17-0.46q-0.13-.29-0.27-0.59t-0.25-.55a1.11,1.11,0,0,1-.11-0.38,1.54,1.54,0,0,0-.67-1.35,13.6,13.6,0,0,0-1.5-.89,8.49,8.49,0,0,1-1.5-1,1.94,1.94,0,0,1-.67-1.6q0.17-.42.34-0.76a5.33,5.33,0,0,1,.36-0.55,0.58,0.58,0,0,1,.48-0.25h4A8.81,8.81,0,0,1,303.26,393.06Z" transform="translate(-265.8 -119.15)" style="fill: #d56127"/>
      <path d="M331.76,409.46a3.21,3.21,0,0,1,.91.4,13.46,13.46,0,0,1,1.54,1,14.25,14.25,0,0,1,1.45,1.22,1.73,1.73,0,0,1,.65,1.14,2.29,2.29,0,0,1-.67,1.05,20,20,0,0,1-1.54,1.54,19.43,19.43,0,0,1-1.69,1.37,2.68,2.68,0,0,1-1.12.59,1.25,1.25,0,0,1-.91-0.48,6,6,0,0,1-.78-1.08A9.74,9.74,0,0,1,329,415a1.2,1.2,0,0,1,.11-1.54q0.34-.67.82-1.48t1-1.54A5.32,5.32,0,0,1,331.76,409.46Z" transform="translate(-265.8 -119.15)" style="fill: #d56127"/>
      <path d="M354.27,392.93h2a1.88,1.88,0,0,1,1.5.74,6,6,0,0,1,1,1.67,11.13,11.13,0,0,1,.53,1.75,8.07,8.07,0,0,1,.17,1,2.54,2.54,0,0,0,0,.53,1.5,1.5,0,0,0,.13.36,2.66,2.66,0,0,0,.17.29,1.28,1.28,0,0,1,0,.29,1.15,1.15,0,0,1-.3.51,3.77,3.77,0,0,1,0,.57,0.28,0.28,0,0,1-.29.27,1.32,1.32,0,0,1-.67-0.49q-0.46-.48-1-1.08l-1.31-1.6a10.34,10.34,0,0,0-1.24-.55l-1.5-.55q-0.88-.29-1.81-0.55a7.46,7.46,0,0,0-2.68.51,7.6,7.6,0,0,0-2.4,1.48,8.52,8.52,0,0,0-1.81,2.36,7.87,7.87,0,0,0-.86,3.16,4.4,4.4,0,0,1-.17,1.35,3.44,3.44,0,0,0-.17,1.1,9.63,9.63,0,0,0,0,1,3.58,3.58,0,0,0,.29,1,11.89,11.89,0,0,0,.84,1.9,10.74,10.74,0,0,0,1.29,1.88,7,7,0,0,0,1.67,1.43,3.72,3.72,0,0,0,2,.57l1.52-.51a2.44,2.44,0,0,0,1.29-.44,1.43,1.43,0,0,0,.7-1.29v-0.84q-0.08-.51-0.21-1a5.76,5.76,0,0,0-.38-1.07,9.78,9.78,0,0,0-.82-1.2,2.88,2.88,0,0,0-.82-0.78,0.7,0.7,0,0,1-.59-0.59,0.31,0.31,0,0,1,.19-0.27,1.4,1.4,0,0,1,.44-0.15,4.93,4.93,0,0,1,.67,0h4.68a2.29,2.29,0,0,0,.48,0l0.4-.11a5.43,5.43,0,0,1,.55-0.13,5.32,5.32,0,0,1,.93-0.06,3.24,3.24,0,0,1,.55.21,1.4,1.4,0,0,1,.4.25,0.47,0.47,0,0,1,.19.34,2.76,2.76,0,0,1-.21.82,0.69,0.69,0,0,1-.46.57h-0.46a1.82,1.82,0,0,0-1.45.67,2,2,0,0,0-.57,1.22v2.45a1.73,1.73,0,0,1-.17.84,1.94,1.94,0,0,0-.17.93,5.79,5.79,0,0,1,.13.67,3.29,3.29,0,0,1,0,.65,1.93,1.93,0,0,1-.15.65,0.66,0.66,0,0,1-.19.49,4.91,4.91,0,0,1-.4.36,5.47,5.47,0,0,1-.59.34l-2.82.46h-0.67a3.42,3.42,0,0,1-.53-0.06q-0.36-.06-0.76-0.17a7.45,7.45,0,0,0-.84-0.17,5.87,5.87,0,0,0-.82-0.06h-1.14a2.88,2.88,0,0,1-.59-0.08,3.12,3.12,0,0,1-.72-0.25,6.9,6.9,0,0,0-1.27-.3,8,8,0,0,0-1-.08,0.89,0.89,0,0,0-.4-0.27l-0.59-.23a3.83,3.83,0,0,1-.59-0.29,1,1,0,0,1-.4-0.46,2.41,2.41,0,0,1-.86-0.86,16.13,16.13,0,0,1-1-1.67,17.28,17.28,0,0,1-.89-1.88,4.45,4.45,0,0,1-.38-1.58V408a2,2,0,0,0-.23-0.82,2,2,0,0,1-.23-0.82V403.6q0.25-.67.46-1.26t0.32-1a3.37,3.37,0,0,0,.15-0.86l0.34-.72a3.57,3.57,0,0,1,.72-2,11.82,11.82,0,0,1,1.71-2,11,11,0,0,1,2.07-1.54,3.91,3.91,0,0,1,1.83-.61l0.63-.08,0.51-.08a2.62,2.62,0,0,1,.42,0h0.46a4.54,4.54,0,0,0,.91-0.06,3.27,3.27,0,0,0,.53-0.17A3,3,0,0,1,350,393a7.13,7.13,0,0,1,1.12-.06h3.16Z" transform="translate(-265.8 -119.15)" style="fill: #d56127"/>
      <path d="M374.89,391.88a2.08,2.08,0,0,1,1.39.4,2.15,2.15,0,0,1,.65,1,6.78,6.78,0,0,1,.25,1.37q0.06,0.74.15,1.41v1.52q0.25,0.46.65,1.24a3.43,3.43,0,0,1,.4,1.58v1.05a4,4,0,0,0,.21.76q0.21,0.63.48,1.39t0.48,1.45a4.08,4.08,0,0,1,.21.95,14.31,14.31,0,0,0,.21,2.13,25.73,25.73,0,0,0,.55,2.59,12.67,12.67,0,0,0,.78,2.19,1.28,1.28,0,0,0,.95.93,2.71,2.71,0,0,1,.93.13,1.72,1.72,0,0,0,.59.13l0.44,0a3.42,3.42,0,0,1,.67.17,1.78,1.78,0,0,1,.61.36,0.79,0.79,0,0,1,.25.61,1.24,1.24,0,0,1-.59,1.18,2.76,2.76,0,0,1-1.39.34l-2.82-.13h-4.22l-1.18.13-0.82,0c-0.38,0-.57-0.14-0.57-0.34a1.15,1.15,0,0,1,.53-1,4.91,4.91,0,0,1,1.24-.63,5,5,0,0,0,1-.46,0.92,0.92,0,0,0,.4-0.84,4.55,4.55,0,0,0-.1-0.63q-0.11-.51-0.25-1.08a7.21,7.21,0,0,0-.34-1,0.6,0.6,0,0,0-.36-0.44,5.72,5.72,0,0,1-.19-0.93,7.06,7.06,0,0,0-.17-0.91,1.23,1.23,0,0,0-.34-0.61,0.79,0.79,0,0,0-.7-0.13H373a6.87,6.87,0,0,0-.74,0l-0.74.11a0.92,0.92,0,0,0-.48.19,0.63,0.63,0,0,0-.44.74,4.86,4.86,0,0,1,.11,1,5.66,5.66,0,0,0-.38.65q-0.25.48-.48,1t-0.4,1a2.46,2.46,0,0,0-.17.59,0.85,0.85,0,0,0,.27.72,4.94,4.94,0,0,0,.61.4,2.15,2.15,0,0,1,.61.53A1.83,1.83,0,0,1,371,416a0.51,0.51,0,0,1-.17.4,1,1,0,0,1-.4.21,2.67,2.67,0,0,1-.46.08l-0.36,0a0.17,0.17,0,0,1-.08.17,0.54,0.54,0,0,1-.23,0,0.73,0.73,0,0,1-.4-0.21h-0.44a4,4,0,0,1-.57,0l-0.76-.08a2.57,2.57,0,0,0-.89.13,2.58,2.58,0,0,1-.89.13,3.93,3.93,0,0,0-.84.06,1.42,1.42,0,0,0-.36.13l-0.15.11a0.25,0.25,0,0,1-.17,0l-0.74,0A10.1,10.1,0,0,1,362,417a4,4,0,0,1-.95-0.3,0.55,0.55,0,0,1-.4-0.44,2,2,0,0,1,.48-1.35,1.63,1.63,0,0,1,1.29-.55l0.8-.21a0.79,0.79,0,0,0,.32-0.15,4.59,4.59,0,0,0,.48-0.36l0.53-.44,0.44-.36a10,10,0,0,1,.91-2.3q0.65-1.24,1.2-2.38a12.15,12.15,0,0,1,.65-1.5q0.4-.78.74-1.33a15.24,15.24,0,0,0,.72-1.56q0.3-.76.55-1.54t0.55-1.58q0.29-.8.67-1.64a6.9,6.9,0,0,0,.46-1.37q0.17-.74.32-1.52t0.38-1.58a10.63,10.63,0,0,1,.61-1.6q0.25-.21.55-0.51a2.91,2.91,0,0,1,.84-0.55h0.72Zm-0.51,7.72a0.7,0.7,0,0,0-.53.25,2.75,2.75,0,0,0-.4.57,3,3,0,0,0-.25.63,2,2,0,0,0-.08.44v0.57a1.24,1.24,0,0,1,0,.34l-0.11.4-0.19.8v0.34a0.63,0.63,0,0,0,.38.49,1.34,1.34,0,0,0,.67.23h0.4a3.57,3.57,0,0,0,.55,0,1.3,1.3,0,0,0,.48-0.17,0.41,0.41,0,0,0,.21-0.38,1.15,1.15,0,0,0-.29-0.84,0.85,0.85,0,0,1-.3-0.59v-1.86a2.58,2.58,0,0,0-.15-0.72A0.52,0.52,0,0,0,374.38,399.59Z" transform="translate(-265.8 -119.15)" style="fill: #d56127"/>
      <path d="M398.46,393.61a2,2,0,0,1,1.12.34,1.09,1.09,0,0,1,.53,1v0.8q-0.46.34-.88,0.59l-0.67.4a1.25,1.25,0,0,1-.46.19h-1.26a1.75,1.75,0,0,0-1.9,1.9v1.26a12.56,12.56,0,0,1-.27,2.49l-0.53,2.57v6.32a2.69,2.69,0,0,0,.06.44,2.78,2.78,0,0,0,.21.63,2.15,2.15,0,0,0,.36.55,0.7,0.7,0,0,0,.55.23h3.63a2.8,2.8,0,0,0,.7-0.25q0.57-.25,1.24-0.59t1.33-.72a6.9,6.9,0,0,0,.95-0.63l0.67-.57a1,1,0,0,1,.63-0.27,3.07,3.07,0,0,1,.36-0.7,0.65,0.65,0,0,1,.44-0.11,1.6,1.6,0,0,1,.72.27,0.74,0.74,0,0,1,.46.53,5.45,5.45,0,0,1-.36,1q-0.36.86-.86,1.94t-1.1,2.07a4.16,4.16,0,0,1-1.1,1.33,1.15,1.15,0,0,1-.74.23l-1.29.11q-0.76,0-1.73,0h-2a9.46,9.46,0,0,1-1.77-.17,1.7,1.7,0,0,0-1.18,0l-0.55.13-2,.46a4.39,4.39,0,0,1-.53-0.06c-0.27,0-.56-0.1-0.86-0.17s-0.6-.13-0.86-0.17A4.43,4.43,0,0,0,389,417a2.27,2.27,0,0,0-.63.08l-0.51.17a3.91,3.91,0,0,1-.51.21,1,1,0,0,1-.7-0.21,1.22,1.22,0,0,1-.34-0.51,2.16,2.16,0,0,1-.13-0.59c0-.2,0-0.35,0-0.46a1,1,0,0,1,.57-1.1,9.34,9.34,0,0,1,1.24-.36,3.85,3.85,0,0,0,1.24-.51,1.7,1.7,0,0,0,.57-1.54v-3.54l0.34-3.16v-1.52q0-.17,0-0.65c0-.32.07-0.67,0.13-1s0.13-.87.21-1.35a1.15,1.15,0,0,0-.19-0.63,1,1,0,0,1-.19-0.55v-0.46a2.68,2.68,0,0,0-.36-1.62A2.56,2.56,0,0,0,389,397a4.55,4.55,0,0,1-.8-0.53,1.49,1.49,0,0,1-.36-1.18,1.4,1.4,0,0,1,.19-0.74,2,2,0,0,1,.44-0.53,1.58,1.58,0,0,1,.51-0.29,1.33,1.33,0,0,1,.38-0.08h9.15Z" transform="translate(-265.8 -119.15)" style="fill: #d56127"/>
      <path d="M419.79,393.61a2,2,0,0,1,1.12.34,1.09,1.09,0,0,1,.53,1v0.8q-0.46.34-.88,0.59l-0.67.4a1.25,1.25,0,0,1-.46.19h-1.26a1.75,1.75,0,0,0-1.9,1.9v1.26a12.56,12.56,0,0,1-.27,2.49l-0.53,2.57v6.32a2.69,2.69,0,0,0,.06.44,2.78,2.78,0,0,0,.21.63,2.15,2.15,0,0,0,.36.55,0.7,0.7,0,0,0,.55.23h3.63A2.8,2.8,0,0,0,421,413q0.57-.25,1.24-0.59t1.33-.72a6.9,6.9,0,0,0,.95-0.63l0.67-.57a1,1,0,0,1,.63-0.27,3,3,0,0,1,.36-0.7,0.65,0.65,0,0,1,.44-0.11,1.6,1.6,0,0,1,.72.27,0.74,0.74,0,0,1,.46.53,5.49,5.49,0,0,1-.36,1q-0.36.86-.87,1.94c-0.34.72-.7,1.41-1.1,2.07a4.16,4.16,0,0,1-1.1,1.33,1.15,1.15,0,0,1-.74.23l-1.29.11q-0.76,0-1.73,0h-2a9.46,9.46,0,0,1-1.77-.17,1.7,1.7,0,0,0-1.18,0l-0.55.13-2,.46a4.39,4.39,0,0,1-.53-0.06c-0.27,0-.56-0.1-0.86-0.17s-0.6-.13-0.86-0.17a4.43,4.43,0,0,0-.53-0.06,2.27,2.27,0,0,0-.63.08l-0.51.17a3.91,3.91,0,0,1-.51.21,1,1,0,0,1-.7-0.21,1.22,1.22,0,0,1-.34-0.51,2.16,2.16,0,0,1-.13-0.59c0-.2,0-0.35,0-0.46a1,1,0,0,1,.57-1.1,9.34,9.34,0,0,1,1.24-.36,3.85,3.85,0,0,0,1.24-.51,1.7,1.7,0,0,0,.57-1.54v-3.54l0.34-3.16v-1.52q0-.17,0-0.65c0-.32.07-0.67,0.13-1s0.13-.87.21-1.35a1.15,1.15,0,0,0-.19-0.63,1,1,0,0,1-.19-0.55v-0.46a2.68,2.68,0,0,0-.36-1.62,2.56,2.56,0,0,0-.8-0.67,4.55,4.55,0,0,1-.8-0.53,1.49,1.49,0,0,1-.36-1.18,1.4,1.4,0,0,1,.19-0.74,2,2,0,0,1,.44-0.53,1.58,1.58,0,0,1,.51-0.29,1.33,1.33,0,0,1,.38-0.08h9.15Z" transform="translate(-265.8 -119.15)" style="fill: #d56127"/>
      <path d="M438.18,393.4a2.71,2.71,0,0,1,.49,0,4.79,4.79,0,0,0,.55.06l0.76,0.06q0.44,0,1.16,0l1.39-.34,0.63-.17a3.36,3.36,0,0,1,.51-0.13l0.38,0a1.82,1.82,0,0,1,.74.21,4.68,4.68,0,0,1,.78.46,3.58,3.58,0,0,1,.38,1.31,4.26,4.26,0,0,0,.34,1.31,1.85,1.85,0,0,1,.29.49l0.34,0.7a6.45,6.45,0,0,0,.42.93q0,0.8-1.05.8a1.49,1.49,0,0,1-.76-0.4,13.14,13.14,0,0,0-1.31-.89,11,11,0,0,0-1.9-.88,7.65,7.65,0,0,0-2.62-.4l-0.8.21a5.17,5.17,0,0,1-.48.63,0.71,0.71,0,0,0-.23.42v0.38c-0.06.23-.11,0.44-0.17,0.63a3.2,3.2,0,0,0-.13.51,2.6,2.6,0,0,0,0,.38v3a2.94,2.94,0,0,0,.25,1.2,0.84,0.84,0,0,0,.8.57l0.42,0a5.93,5.93,0,0,0,.63-0.13l0.8-.17h0.84a1.14,1.14,0,0,0,.61-0.17c0.18-.11.36-0.23,0.53-0.36l0.48-.36a0.81,0.81,0,0,1,.48-0.17,0.46,0.46,0,0,1,.29.17,4.56,4.56,0,0,1,.34.38l0.42,0.51V407a1,1,0,0,1-1.05,1.18,1.6,1.6,0,0,1-.8-0.19,3.79,3.79,0,0,1-.59-0.4,3.58,3.58,0,0,1-.78-0.38,1.38,1.38,0,0,0-.78-0.21h-1.52a1.71,1.71,0,0,0-1.35.38,2.67,2.67,0,0,0-.29,1.52v1.05a8.46,8.46,0,0,1,.17,1.18,8.45,8.45,0,0,0,.15,1.1,2,2,0,0,0,.4.86,1.55,1.55,0,0,0,.93.49h2.36a4.07,4.07,0,0,0,1.29-.23,9.11,9.11,0,0,0,1.41-.61l1.33-.46a3.46,3.46,0,0,1,1.12-.21,3.13,3.13,0,0,1,.34.29l0.25,0.25a0.37,0.37,0,0,1,.13.25,0.85,0.85,0,0,1-.21.55,4.49,4.49,0,0,1-.51.51,3.49,3.49,0,0,0-.84,1.12l-0.48,1.05a2.68,2.68,0,0,1-.57.8,1.43,1.43,0,0,1-1,.32,1.6,1.6,0,0,1-.46-0.06,3.37,3.37,0,0,1-.44-0.17,2.51,2.51,0,0,0-.55-0.17,4.07,4.07,0,0,0-.78-0.06l-4.09.13-1.43.34h-3.5l-0.84.25-1.26.08a0.87,0.87,0,0,1-.46-0.17,2.57,2.57,0,0,1-.46-0.4,3.54,3.54,0,0,1-.36-0.46,0.77,0.77,0,0,1-.15-0.36q0-1.05,1.56-1.05a7,7,0,0,0,.67-0.29,8.31,8.31,0,0,1,1.05-.42,2,2,0,0,0,1.2-.55,3.15,3.15,0,0,0,.32-1.77,0.84,0.84,0,0,1,.15-0.44,0.35,0.35,0,0,0-.15-0.48,2.57,2.57,0,0,0,0-.44,2.39,2.39,0,0,0-.12-0.44c-0.06-.17-0.11-0.35-0.17-0.55V406.3l0.34-3v-0.72a0.63,0.63,0,0,1,.06-0.34A0.6,0.6,0,0,0,434,402v-4.68a0.69,0.69,0,0,0-.42-0.61,1.53,1.53,0,0,0-.63-0.23h-1.18a1.21,1.21,0,0,1-1.16-.67,3.26,3.26,0,0,1-.36-1.56,0.62,0.62,0,0,1,.23-0.46,0.72,0.72,0,0,1,.48-0.21h2.23a7.32,7.32,0,0,0,.78-0.06,11.54,11.54,0,0,1,1.33-.06h2.91Z" transform="translate(-265.8 -119.15)" style="fill: #d56127"/>
      <path d="M465.5,392.47a2.34,2.34,0,0,1,1.58.65l1.33,1.2a2.92,2.92,0,0,0,1.05,1.52c0.17,0.2.34,0.41,0.51,0.63a1.87,1.87,0,0,1,.34.8,0.5,0.5,0,0,1,.34.36,4.93,4.93,0,0,1,.29.84c0.08,0.32.15,0.63,0.21,0.91a3.91,3.91,0,0,1,.08.55,4.66,4.66,0,0,1-.21,1.31,11.74,11.74,0,0,1-.53,1.43q-0.32.72-.67,1.37t-0.61,1.08a1.29,1.29,0,0,1-.44.46l-0.53.32a1.51,1.51,0,0,0-.44.4,1.11,1.11,0,0,0-.19.67,4.06,4.06,0,0,0,.25,1.22,11.37,11.37,0,0,0,.63,1.52,11.61,11.61,0,0,0,.78,1.35,2.22,2.22,0,0,0,.65.72,4,4,0,0,1,.91.84q0.4,0.51.84,1a7.4,7.4,0,0,0,.95.91,2.66,2.66,0,0,0,1.18.53l0.8,0.32a2.67,2.67,0,0,1,.84.53,1,1,0,0,1,.27.36,1.31,1.31,0,0,1-.06.44,1,1,0,0,1-.61.67,3.64,3.64,0,0,1-1.05.27,6.63,6.63,0,0,1-1,0,2.16,2.16,0,0,1-.55-0.06,1.16,1.16,0,0,0-.78-0.25,2.89,2.89,0,0,1-.78-0.08,10.52,10.52,0,0,1-1.6-1.1,6.91,6.91,0,0,0-1.1-.8,3.63,3.63,0,0,1-.63-0.44c-0.25-.21-0.53-0.46-0.82-0.74s-0.59-.58-0.88-0.89L465,412.5a11.42,11.42,0,0,1-.87-1.22q-0.36-.59-0.63-1.12t-0.53-1a2.63,2.63,0,0,0-.55-0.7,3.64,3.64,0,0,1-.86-0.63,1.14,1.14,0,0,0-.87-0.29,1,1,0,0,0-.78.32,2.22,2.22,0,0,0-.42.74,3.59,3.59,0,0,0-.19.88c0,0.31,0,.56,0,0.76l0.46,2v0.84a1.8,1.8,0,0,0,.65,1.52,6.79,6.79,0,0,0,1.41.84l1.41,0.65a1,1,0,0,1,.65.95,0.62,0.62,0,0,1-.29.51,1,1,0,0,1-.55.21h-1.52l-2.36-.34h-5.27l-0.82-.06c-0.46,0-1-.11-1.48-0.21a6.75,6.75,0,0,1-1.41-.42,0.85,0.85,0,0,1-.63-0.74,0.37,0.37,0,0,1,.13-0.25,2.83,2.83,0,0,1,.29-0.25,1.63,1.63,0,0,1,.42-0.29l0.38,0,0.51,0.08,0.63,0.08h0.84a2.1,2.1,0,0,0,1.41-.49,1.37,1.37,0,0,0,.57-1V402.63l0.34-3a4.7,4.7,0,0,1-.17-1,9.17,9.17,0,0,0-.15-1.12,2.68,2.68,0,0,0-.38-0.95,1.28,1.28,0,0,0-.82-0.55h-1.64a5.15,5.15,0,0,1-.93-0.08,3,3,0,0,1-.86-0.29,1.77,1.77,0,0,1-.65-0.59,1.8,1.8,0,0,1-.25-1,0.39,0.39,0,0,1,.19-0.27,4.13,4.13,0,0,1,.4-0.27,2.92,2.92,0,0,1,.59-0.3l7.13-.34h4.34l0.46,0a5.55,5.55,0,0,0,.68-0.13l0.88-.17h1.64Zm-4,4.3-0.38.08a3.47,3.47,0,0,1-.46.15,1.65,1.65,0,0,0-.55.27,0.81,0.81,0,0,0-.57.27,1.19,1.19,0,0,0-.27.86v3.08a1.15,1.15,0,0,1-.17.61,1,1,0,0,0-.17.53l0.17,0.08,0.13,0.15a0.55,0.55,0,0,1,0,.27,0.94,0.94,0,0,0,.08.78,2.11,2.11,0,0,0,.59.63,3,3,0,0,0,.82.42,2.43,2.43,0,0,0,.74.15l0.76-.34,0.61-.25a1.17,1.17,0,0,1,.48-0.13l0.84,0.34a1.18,1.18,0,0,0,.93-0.44,3.72,3.72,0,0,0,.61-1,7.6,7.6,0,0,0,.36-1.1,3.86,3.86,0,0,1,.21-0.7L466,400.31a2.49,2.49,0,0,0-.06-0.57,1.37,1.37,0,0,0-.4-0.61,7,7,0,0,0-.06-0.76,1.07,1.07,0,0,0-.4-0.76,3.41,3.41,0,0,1-.61-0.13l-1.05-.29c-0.38-.11-0.76-0.21-1.14-0.29A4.35,4.35,0,0,0,461.49,396.77Z" transform="translate(-265.8 -119.15)" style="fill: #d56127"/>
      <path d="M497.92,392.93a3.35,3.35,0,0,1,.65.08l0.78,0.19c0.25,0.07.47,0.14,0.65,0.21a0.37,0.37,0,0,1,.27.19,2.12,2.12,0,0,1-.55,1.54,1.9,1.9,0,0,1-1.43.57H497a1.52,1.52,0,0,0-.88.21,1.74,1.74,0,0,0-.48.53,2.26,2.26,0,0,0-.27.76,8.79,8.79,0,0,1-.21.86,5.71,5.71,0,0,0-.38.51,1.35,1.35,0,0,1-.46.42,3.13,3.13,0,0,1-.4.55,4.12,4.12,0,0,0-.4.51q-0.25.46-.74,1.41t-0.95,2.11a24.41,24.41,0,0,0-.8,2.34,7.79,7.79,0,0,0-.34,2.11v1.52l-0.21,1.18c0,0.08,0,.26,0,0.53a7.54,7.54,0,0,0,.13.8,4.22,4.22,0,0,0,.21.72,0.39,0.39,0,0,0,.29.32,5.66,5.66,0,0,0,1.22.4q0.93,0.23,1.92.55a12.3,12.3,0,0,1,1.75.7,1.08,1.08,0,0,1,.76.8,1.61,1.61,0,0,1,0,.38,0.4,0.4,0,0,1-.42.34,2.79,2.79,0,0,1-.65.46,1.43,1.43,0,0,0-.53.46,0.31,0.31,0,0,0-.28.19l-0.21.4a1.9,1.9,0,0,1-.27.4,0.54,0.54,0,0,1-.42.19,2.27,2.27,0,0,1-.86-0.23,2.75,2.75,0,0,0-1.12-.23h-2.83a5.57,5.57,0,0,1-.67,0l-0.65-.11a2,2,0,0,1-.65-0.23h-1.9a2.22,2.22,0,0,0-1.05.19,2.25,2.25,0,0,1-1.05.19h-0.72a3.45,3.45,0,0,1-2-.38A1.86,1.86,0,0,1,480,416a2.93,2.93,0,0,1,.38-1.41,1.33,1.33,0,0,1,1.27-.7l2,0.46a1.65,1.65,0,0,0,.61-0.15,2.71,2.71,0,0,0,.63-0.36,1.25,1.25,0,0,0,.4-0.51,0.83,0.83,0,0,0,0-.63L484.81,408a6.13,6.13,0,0,0,0-.7,1,1,0,0,1,.17-0.7,1.26,1.26,0,0,0-.13-0.53,1.26,1.26,0,0,1-.13-0.53,2.89,2.89,0,0,0-.44-1.58,8.32,8.32,0,0,0-1.41-1.58,3,3,0,0,0-1.12-1.18q-0.82-.55-1.71-1.18a5.41,5.41,0,0,0-.76-1.22,5.4,5.4,0,0,1-.76-1.22,1.5,1.5,0,0,0-.55-0.29,2.52,2.52,0,0,1-.63-0.29,15.32,15.32,0,0,0-1.64-.34,2.78,2.78,0,0,1-1.12-.78,2,2,0,0,1-.4-1.33,2,2,0,0,1,.32-1.18,1.36,1.36,0,0,1,1.2-.46h2a2.89,2.89,0,0,1,1.14.23,2.38,2.38,0,0,0,.84.23h2l0.46,0,0.74,0.06,0.82,0.06q0.42,0,.67,0h0.93a0.5,0.5,0,0,1,.34.06,1,1,0,0,1,0,.4,1,1,0,0,1-.25.63q-0.25.3-.53,0.65c-0.18.24-.36,0.49-0.53,0.74a1.43,1.43,0,0,0-.25.8,2.36,2.36,0,0,0,.46,1.18,15.13,15.13,0,0,0,1.05,1.43q0.67,0.8,1.56,1.73a1.33,1.33,0,0,0,.08.38c0.06,0.17.12,0.34,0.19,0.51a1.9,1.9,0,0,0,.25.44,0.39,0.39,0,0,0,.27.19,0.79,0.79,0,0,0,.59-0.42,6.35,6.35,0,0,0,.55-1l0.46-1a1.64,1.64,0,0,1,.38-0.61,1.49,1.49,0,0,1,.25-0.59q0.25-.42.57-0.91t0.57-1a1.86,1.86,0,0,0,.25-0.82,0.49,0.49,0,0,0-.34-0.42c-0.23-.11-0.46-0.25-0.72-0.4a3.78,3.78,0,0,1-.72-0.57,1.31,1.31,0,0,1-.34-1,0.36,0.36,0,0,1,.19-0.29,1.8,1.8,0,0,1,.46-0.21,3.88,3.88,0,0,1,.55-0.13,3,3,0,0,1,.44,0,3.63,3.63,0,0,0,.46.13l0.4,0.06,0.32,0h0.8a5.39,5.39,0,0,1,1.1-.19l1.6,0a3.18,3.18,0,0,0,.7-0.06,1.77,1.77,0,0,0,.46-0.17,2.08,2.08,0,0,1,.4-0.17A2,2,0,0,1,497.92,392.93Z" transform="translate(-265.8 -119.15)" style="fill: #d56127"/>
    </g>
    <g>
      <path d="M361,227.46s4.75-5,6.12-21.87c0,0,1-2.48-6.31-20.93,0,0-12.49-34.45-12.27-55.79,0,0-1.1-9.72-15.34-9.72s-12.49,17.53-12.49,17.53l6.94,37.47s8.83,29.67,10.8,33,9,11.24,9,11.24S355.88,229.65,361,227.46Z" transform="translate(-265.8 -119.15)" style="fill: #d56127"/>
      <path d="M442.89,355.88" transform="translate(-265.8 -119.15)" style="fill: #d56127;opacity: 0.5"/>
      <path d="M317.13,295s18.19-11.83,4.5-35.71-43.93-23.66-43.93-23.66-14,2-11.61,17.09c0,0,.22,3.94,7.67,7.89s17.75,23.23,17.75,23.23S302.46,300.48,317.13,295Z" transform="translate(-265.8 -119.15)" style="fill: #d56127"/>
      <path d="M398.09,224.76s14.46,0,14.9-13.15-7.1-15.67-5.92-21.47c1.63-8,2-9,2-9l3.92-46.6s-0.46-11.17-9.88-11.17-14.46,23-10.74,46-1.23,27.47-1.23,27.47S380.56,220.37,398.09,224.76Z" transform="translate(-265.8 -119.15)" style="fill: #d56127"/>
      <path d="M418.68,217.74s2,8.11,2,10.08-1.31,6.35,3.72,6.57,18,2.41,22.79-20.38,7.17-28,7.83-29.58,10.36-16.21,9.7-29.36-2-12-7.23-11.17-14.71,8.34-19.47,28.77l-2.68,12.48s-4.77,18.22-14,24.69A13,13,0,0,0,418.68,217.74Z" transform="translate(-265.8 -119.15)" style="fill: #d56127"/>
      <path d="M455.71,251s4.6,3.31,12.48-7.5c4.9-6.72,2.65-15.09,2.65-15.09S457.35,233,455.71,251Z" transform="translate(-265.8 -119.15)" style="fill: #d56127"/>
      <path d="M473.24,223.14s7.87-1.6,12.42-7.34,3.75-5.58,5-7.48,10.36-8.66,14.45-18.11S499.3,173,496.24,174s-9.83,3-17.54,22.92l-5.62,8.95S466.27,225,473.24,223.14Z" transform="translate(-265.8 -119.15)" style="fill: #d56127"/>
    </g>
    <g>
      <path d="M356.32,316c-0.23.55-.37,0.65-0.41,0.29a1.46,1.46,0,0,1,.06-0.77,15.22,15.22,0,0,1,3.34-7.51,59.44,59.44,0,0,1,1.73-8.64q1.26-4.6,2.68-9.24t2.81-9.13q1.36-4.47,2.32-8.29a36.59,36.59,0,0,1-5.24-.36l-1-.24c-0.08-.23.2-0.52,0.84-0.83a23.39,23.39,0,0,1,10-2.56,88.85,88.85,0,0,1,10.73.3c2.3,0.16,4.6.28,6.91,0.36a21.65,21.65,0,0,0,7.27-1.08c0.4-.07.6,0,0.6,0.24a1,1,0,0,1-.36.6,8,8,0,0,1-3.4,2.32,22.53,22.53,0,0,1-4.59,1.13,36.21,36.21,0,0,1-5.06.36h-4.84a28,28,0,0,1,.48,6.62,76,76,0,0,1-.66,7.81q-0.53,4.05-1.43,8.11T377.44,303c3,0.4,5.91.7,8.65,0.9a12.79,12.79,0,0,0,7.45-1.61c0.24-.08.36,0,0.36,0.12a1.3,1.3,0,0,1-.12.6,10.08,10.08,0,0,1-4.88,3.76,15.36,15.36,0,0,1-5.72.71,50.07,50.07,0,0,1-6.2-.78,33.87,33.87,0,0,0-6.21-.6,16.06,16.06,0,0,0-7.8,2.21Q358.95,310.51,356.32,316Zm0.48-43.41c-0.16.55-.29,0.7-0.41,0.42a1.1,1.1,0,0,1-.07-0.77,17.86,17.86,0,0,1,2.52-7.27,17.15,17.15,0,0,1,4.53-4.83,19,19,0,0,1,5.71-2.75,26.27,26.27,0,0,1,6.21-1,61.74,61.74,0,0,1,8.23.3c2.7,0.28,5.34.54,7.93,0.78a67.82,67.82,0,0,0,7.38.3,21,21,0,0,0,6.62-1.13c0.24-.08.37,0,0.37,0.12l-0.37.48a14.29,14.29,0,0,1-6.8,3.46,32.83,32.83,0,0,1-7.69.53c-2.66-.12-5.39-0.35-8.17-0.71a44.13,44.13,0,0,0-8.23-.3,22.2,22.2,0,0,0-5.36,1,21.76,21.76,0,0,0-5.12,2.33,18.1,18.1,0,0,0-4.29,3.76A16.65,16.65,0,0,0,356.81,272.58Zm0.12,47c-0.16.32-.32,0.4-0.47,0.24a2.59,2.59,0,0,1,0-1.19,24.06,24.06,0,0,1,1.07-3,8.68,8.68,0,0,1,1.91-2.69,5.23,5.23,0,0,1,1.49-1,17.12,17.12,0,0,1,1.91-.78,7.18,7.18,0,0,1,1.49-.36c0.39,0,.52.07,0.36,0.3a18.31,18.31,0,0,1-1.85,2c-0.76.72-1.52,1.47-2.26,2.26s-1.49,1.55-2.16,2.27A10.62,10.62,0,0,0,356.92,319.57ZM361.21,271c-0.64.8-1.21,1.57-1.73,2.32a17.36,17.36,0,0,0-1.36,2.45,0.29,0.29,0,0,1-.36.18,1,1,0,0,1-.12-1,22.4,22.4,0,0,1,.6-3.34,7.34,7.34,0,0,1,2-3,6.54,6.54,0,0,1,1.67-1.37c0.71-.43,1.39-0.82,2-1.13a5.79,5.79,0,0,1,1.73-.6q0.77-.12.9,0.36a1.62,1.62,0,0,1-.78,1.19,7.23,7.23,0,0,1-1.38,1.07A24.44,24.44,0,0,0,361.21,271Zm6.68,60q0.12-3,.36-6.2a54.38,54.38,0,0,1,.83-6.32c-0.32-.07-1.05-0.22-2.2-0.42s-2.29-.34-3.4-0.42a2.32,2.32,0,0,0-2,.42,3.9,3.9,0,0,0-.53,2,44,44,0,0,0,.47,12A37.37,37.37,0,0,0,365,342.83a0.6,0.6,0,0,1,.12.59c-0.08.16-.24,0.12-0.47-0.12a27.15,27.15,0,0,1-5.37-9.59,42.56,42.56,0,0,1-1.67-10.32,8.12,8.12,0,0,1,1-4.41,7.34,7.34,0,0,1,3.52-3.1,17.3,17.3,0,0,1,7.88-1.43q3.93,0.24,8.23.72c1.67,0.16,3.44.3,5.3,0.42a11.08,11.08,0,0,0,5.55-1.13,0.42,0.42,0,0,1,.47-0.12,0.29,0.29,0,0,1,0,.36l-0.24.48a6.13,6.13,0,0,1-3.16,2.74,16.2,16.2,0,0,1-4.47,1.07,30.83,30.83,0,0,1-4.71.12c-1.55-.08-2.84-0.12-3.88-0.12-0.71,2.39-1.47,4.61-2.26,6.68s-1.48,4-2,5.72c-0.32,1-.55,1.51-0.71,1.43a0.64,0.64,0,0,1-.24-0.65V331Zm-1.44,3.81a34.22,34.22,0,0,0,1,4c0.39,1.3.83,2.64,1.3,4a2,2,0,0,1,.18.66c0,0.28,0,.42-0.18.42a1.1,1.1,0,0,1-.58-0.24,3.91,3.91,0,0,1-.6-0.48,28.13,28.13,0,0,1-2.33-3.34,15.88,15.88,0,0,1-1.49-5,22.88,22.88,0,0,1-.29-3.34c0-1.35,0-2.66.06-3.93a19.63,19.63,0,0,1,.42-3.21c0.19-.88.45-1.32,0.78-1.32a1,1,0,0,1,.29.6,9.2,9.2,0,0,1,.29,1.37c0.08,0.52.14,1,.18,1.55s0.06,0.85.06,1c0.17,1.35.31,2.63,0.43,3.82A30.56,30.56,0,0,0,366.46,334.83Zm3.46-42.22c0.08-.4.34-1.26,0.77-2.56s0.94-2.89,1.5-4.72,1.09-3.81,1.6-6a54.25,54.25,0,0,0,1.14-6.44H372.2a78.55,78.55,0,0,1-3.64,15.32q-2.69,7.81-4.83,15.8c0.64-.31,1.26-0.6,1.85-0.83a13,13,0,0,1,1.86-.61c0.39-1.75.81-3.52,1.24-5.3S369.52,294,369.92,292.62Zm13.83,21.47a37.67,37.67,0,0,1-6.37-1.08q-3.29-.83-6.38-1.91a1.57,1.57,0,0,1-.54-0.24,0.7,0.7,0,0,1-.41-0.61,0.75,0.75,0,0,1,.58-0.47,7.65,7.65,0,0,1,1.2-.36,20.18,20.18,0,0,1,2.74-.42,13.24,13.24,0,0,1,3.33.06q1.91,0.24,4.18.3a25,25,0,0,0,4.29-.24,14.74,14.74,0,0,0,3.7-1,6.21,6.21,0,0,0,2.51-1.78,0.45,0.45,0,0,1,.47-0.36h0.12a1.1,1.1,0,0,1,.07.6,2.92,2.92,0,0,1-.19.6,10.16,10.16,0,0,1-4.17,5.24A9,9,0,0,1,383.76,314.09ZM376.25,284c-0.89,3.34-1.7,6.43-2.45,9.24s-1.73,5.83-2.92,9H372a2.79,2.79,0,0,1,1,.24c0.33-1.27.68-2.48,1.08-3.64s0.8-2.4,1.19-3.75c1-3.34,1.82-6.7,2.61-10.08a74.26,74.26,0,0,0,1.67-12.11h-2.39c0,1.83-.06,3.8-0.17,5.9A23.26,23.26,0,0,1,376.25,284Zm15.26-16.22c-2.56-.16-5.27-0.48-8.17-0.95s-5.63-1-8.17-1.67a3.15,3.15,0,0,1-.9-0.24,0.78,0.78,0,0,1-.66-0.6,0.62,0.62,0,0,1,.54-0.41,2.77,2.77,0,0,1,.78-0.18,14.9,14.9,0,0,1,2.08-.42c0.83-.12,1.7-0.22,2.62-0.3s1.81-.12,2.69-0.12h2.26q1.79,0.12,4.6.12a54,54,0,0,0,5.67-.3,48.49,48.49,0,0,0,5.3-.83,10.11,10.11,0,0,0,3.75-1.49c0.41-.4.6-0.43,0.6-0.12a0.78,0.78,0,0,1-.18.47,3.59,3.59,0,0,0-.31.48,9.92,9.92,0,0,1-2.51,2.92,17.73,17.73,0,0,1-3.33,2.15,14.43,14.43,0,0,1-3.52,1.25A10.8,10.8,0,0,1,391.51,267.81Z" transform="translate(-265.8 -119.15)" style="fill: #d56127"/>
      <path d="M407.6,343.42a20.25,20.25,0,0,1-5.65-5.49,18.5,18.5,0,0,1-2.7-6.2,24.42,24.42,0,0,1-.53-6.56,38.69,38.69,0,0,1,.9-6.55,73.12,73.12,0,0,1,2.44-8.52c1-2.82,1.94-5.57,2.87-8.23a63.59,63.59,0,0,0,2.13-7.82,19.26,19.26,0,0,0,.18-7.28c0-.31,0-0.47.12-0.47a1,1,0,0,1,.6.6,15,15,0,0,1,2,7.87,34.31,34.31,0,0,1-1.31,8.29,85.72,85.72,0,0,1-2.93,8.59,55.34,55.34,0,0,0-2.67,8.77,36.63,36.63,0,0,0-.79,5.79,23.67,23.67,0,0,0,.42,6,24.16,24.16,0,0,0,2,5.84,17.3,17.3,0,0,0,3.77,5.13c0.31,0.16.39,0.32,0.23,0.48a0.4,0.4,0,0,1-.55.05C407.95,343.6,407.77,343.5,407.6,343.42Zm4.54,0.48a0.8,0.8,0,0,1-1-.36c-0.88-.63-1.73-1.31-2.56-2a11.25,11.25,0,0,1-2.45-3.46,6.6,6.6,0,0,1-.71-2.14,14.86,14.86,0,0,1-.24-2.57,9.85,9.85,0,0,1,.18-2.08c0.11-.55.29-0.83,0.53-0.83a1.69,1.69,0,0,1,.78,1.31,5.54,5.54,0,0,0,.53,1.55c0.31,0.88.6,1.69,0.83,2.45s0.52,1.49.84,2.2a23.51,23.51,0,0,0,1.43,2.87,20.73,20.73,0,0,0,1.67,2.39,1.53,1.53,0,0,1,.24.36A0.23,0.23,0,0,1,412.14,343.9Zm3.34-40.19a52.11,52.11,0,0,1-3.52,8.94,72.72,72.72,0,0,0-3.63,8.47c-0.07.16-.23,0.46-0.43,0.9a0.67,0.67,0,0,1-.77.54,1,1,0,0,1-.3-0.78c0-.43-0.06-0.77-0.06-1a26.64,26.64,0,0,1,.65-5.07,45.12,45.12,0,0,1,1.37-5.19c0.16-.47.47-1.69,0.9-3.64s0.83-4.08,1.19-6.38,0.6-4.53.72-6.68a8.74,8.74,0,0,0-.67-4.66c-0.32-.55-0.32-0.84,0-0.84a1.61,1.61,0,0,1,1,.6,10.26,10.26,0,0,1,2.33,3.21,17.84,17.84,0,0,1,1.3,4,19.51,19.51,0,0,1,.37,4.12A17.74,17.74,0,0,1,415.48,303.71Zm24.33-3.22a26.09,26.09,0,0,1-.48,7.09,42.12,42.12,0,0,1-1.79,6.26,5.87,5.87,0,0,1-.77,1.31,0.84,0.84,0,0,1-1,.48c-0.15,0-.2-0.28-0.11-0.83a10.06,10.06,0,0,0,.11-1.2c0.08-.87.14-2,0.18-3.28s0.06-2.64.06-4-0.06-2.65-.18-3.88a19.81,19.81,0,0,0-.53-3.16c-0.71-2.55-1.84-4-3.4-4.24a6.17,6.17,0,0,0-4.71,1.25,19.39,19.39,0,0,0-4.53,4.65,17.24,17.24,0,0,0-2.86,5.85c0.48-.72,1.09-1.57,1.85-2.57a23.81,23.81,0,0,1,2.55-2.86,15.27,15.27,0,0,1,3-2.27,5.44,5.44,0,0,1,3-.78,2.5,2.5,0,0,1,2.21,1.68,11.67,11.67,0,0,1,.78,3.81,26.63,26.63,0,0,1-.25,4.89c-0.23,1.75-.51,3.38-0.83,4.89q-0.85,3.7-1.44,7.63a40.37,40.37,0,0,0-.42,7.69,27.87,27.87,0,0,0,1.31,7.28,17.55,17.55,0,0,0,3.88,6.5c0.16,0.24.28,0.44,0.36,0.59s-0.12.12-.6-0.12a16.66,16.66,0,0,1-5-4.18,17.77,17.77,0,0,1-2.8-5.13,20.93,20.93,0,0,1-1.13-5.72,38,38,0,0,1,1.49-13.48,44,44,0,0,0,1.43-7.28c0.16-1.67,0-2.76-.35-3.28a2.11,2.11,0,0,0-1.43-.89,3.63,3.63,0,0,0-2.69,1.24,19.91,19.91,0,0,0-3.09,3.88,43.43,43.43,0,0,0-3.11,5.84,53.57,53.57,0,0,0-2.56,7c-0.64,2.47-1.41,5-2.33,7.69s-1.77,4.95-2.56,6.86a1.87,1.87,0,0,1-.72,1.07,0.55,0.55,0,0,1-.41-0.47,2.21,2.21,0,0,1-.19-0.71,35,35,0,0,1,1.07-11.81q1.56-5.84,3.58-11.8,1.2-3.7,2.14-6.55a23.24,23.24,0,0,0,1-7.28,9.55,9.55,0,0,1,.95-4,12.3,12.3,0,0,1,2.8-3.82,14.33,14.33,0,0,1,4.59-2.8,15.6,15.6,0,0,1,6.21-1c3.81,0.08,6.75,1,8.82,2.69a13.66,13.66,0,0,1,4.36,6.5,24.77,24.77,0,0,1,1.07,8.53,59.17,59.17,0,0,1-1,8.88,49.48,49.48,0,0,1-1.67,5.84q-1,2.63-2,4.89l-2,4.29a28.58,28.58,0,0,0-1.56,4.06c-0.08.24-.16,0.5-0.24,0.77a0.44,0.44,0,0,1-.36.42,0.49,0.49,0,0,1-.36-0.47,4.64,4.64,0,0,1-.12-1.08,23,23,0,0,1,.84-7.81c0.72-2.51,1.46-5.09,2.27-7.75A56.13,56.13,0,0,0,442,308a29.92,29.92,0,0,0-.48-9.78q-1.07-5.73-5.24-7.63t-9.54.24c-0.48.24-1.12,0.59-1.91,1.07a11.16,11.16,0,0,0-2.33,1.91,15.31,15.31,0,0,0-2.07,2.8,9,9,0,0,0-1.2,3.52,27.2,27.2,0,0,1,3.34-4.06,17.09,17.09,0,0,1,4.06-3,12.07,12.07,0,0,1,4.36-1.37,7.69,7.69,0,0,1,4.35.83,7.07,7.07,0,0,1,3.46,3.63A13.75,13.75,0,0,1,439.8,300.49Zm0,42.69a1.45,1.45,0,0,1-1-.12,3.13,3.13,0,0,1-.6-0.24,13.26,13.26,0,0,1-2.86-2.44,15.36,15.36,0,0,1-2.39-4.71,18.32,18.32,0,0,1-.54-3,21.65,21.65,0,0,1-.06-3.64,18.37,18.37,0,0,1,.42-3c0.19-.83.48-1.25,0.89-1.25,0.15,0,.33.46,0.53,1.38s0.41,2,.6,3.15,0.42,2.39.66,3.57,0.44,2.08.6,2.63q0.59,1.79,1.19,3.57a7.88,7.88,0,0,0,1.9,3.1,3.38,3.38,0,0,1,.49.66C439.85,343,439.89,343.18,439.8,343.18Z" transform="translate(-265.8 -119.15)" style="fill: #d56127"/>
    </g>
  </g>
</svg>
